# Blender v2.83.5 OBJ File: 'stadion-roof.blend'
# www.blender.org
mtllib stadion-roof.mtl
o Cube
v -1.589911 1.996037 1.512653
v -0.641493 2.000367 1.158058
v 1.890256 2.496617 -0.690746
v -1.236625 2.997093 -0.470547
v -2.809713 2.492496 0.975130
v 0.526470 2.496617 -1.216317
v 0.596027 2.924345 -1.282479
v -1.053264 2.496617 -0.544784
v -2.357124 2.997093 -1.329716
v 1.920084 2.811442 -0.728534
v 1.772703 2.496617 0.722984
v 1.281551 2.739762 -2.744313
v -1.555614 2.739762 -3.353899
v -4.239308 2.492496 0.771793
v 2.524055 2.800867 -0.776055
v 2.526060 2.496617 -0.784719
v 3.125977 2.151794 0.722984
v 3.736489 2.062814 -0.784719
vt 0.125000 0.500000
vt 0.375000 0.500000
vt 0.250000 0.625000
vt 0.375000 0.750000
vt 0.000000 0.000000
vt 0.125000 0.750000
vt 0.125000 0.625000
vt 0.000000 0.000000
vt 0.000000 0.000000
vt 0.000000 0.000000
vt 0.000000 0.000000
vt 0.000000 0.000000
vt 0.000000 0.000000
vt 0.000000 0.000000
vt 0.000000 0.000000
vt 0.000000 0.000000
vt 0.000000 0.000000
vt 0.000000 0.000000
vn -0.1080 -0.9612 -0.2540
vn -0.0251 -0.9991 0.0328
vn 0.0000 -1.0000 0.0000
vn 0.1800 -0.9769 -0.1156
vn -0.2972 0.8726 0.3875
vn -0.1144 -0.9909 0.0715
vn -0.0263 -0.9932 0.1131
vn -0.0250 -0.9929 0.1163
vn 0.2657 0.9295 0.2557
vn -0.0296 0.9776 0.2082
vn -0.0921 -0.9617 -0.2580
vn -0.0799 -0.1113 -0.9906
vn -0.1462 0.0272 -0.9889
vn -0.0143 -0.9991 0.0401
vn 0.3363 0.9383 0.0808
vn -0.2451 -0.9617 -0.1224
vn 0.3524 -0.1988 -0.9145
vn -0.3900 -0.0785 -0.9175
vn -0.4055 -0.0130 -0.9140
vn 0.3713 -0.1453 -0.9171
vn -0.9075 -0.2870 -0.3066
usemtl Material
s off
f 6/1/1 2/2/1 8/3/1
f 4/4/2 9/5/2 7/6/2
f 3/7/3 11/8/3 6/1/3
f 6/1/4 11/8/4 2/2/4
f 4/4/5 9/5/5 1/9/5
f 10/10/6 7/6/6 12/11/6
f 9/5/7 12/11/7 7/6/7
f 12/11/8 9/5/8 13/12/8
f 1/9/9 9/5/9 5/13/9
f 14/14/10 5/13/10 9/5/10
f 8/3/11 2/2/11 1/9/11
f 10/10/12 15/15/12 3/7/12
f 15/15/13 16/16/13 3/7/13
f 12/11/14 15/15/14 10/10/14
f 11/8/3 3/7/3 16/16/3
f 16/16/15 17/17/15 18/18/15
f 16/16/16 17/17/16 11/8/16
usemtl Material.001
f 3/7/17 6/1/17 7/6/17
f 7/6/18 6/1/18 8/3/18
f 4/4/19 7/6/19 8/3/19
f 7/6/20 10/10/20 3/7/20
f 1/9/21 4/4/21 8/3/21
